<svg width="100" height="100" viewBox="0 0 100 100" fill="none" xmlns="http://www.w3.org/2000/svg">
<rect width="100" height="100" rx="50" fill="#5B0F80"/>
<path d="M32.233 32.524H26.493V27.4H44.581V32.524H38.841V47H32.233V32.524ZM45.7373 27.4H52.3453V47H45.7373V27.4ZM64.4024 27.4C66.2131 27.4 67.7904 27.6987 69.1344 28.296C70.4784 28.8933 71.5144 29.752 72.2424 30.872C72.9704 31.992 73.3344 33.2987 73.3344 34.792C73.3344 36.2853 72.9704 37.592 72.2424 38.712C71.5144 39.832 70.4784 40.6907 69.1344 41.288C67.7904 41.8853 66.2131 42.184 64.4024 42.184H61.5744V47H54.9664V27.4L64.4024 27.4ZM63.9824 37.088C64.8784 37.088 65.5504 36.892 65.9984 36.5C66.4464 36.0893 66.6704 35.52 66.6704 34.792C66.6704 34.064 66.4464 33.504 65.9984 33.112C65.5504 32.7013 64.8784 32.496 63.9824 32.496H61.5744V37.088H63.9824ZM46.8787 73L46.8227 64.068L42.5667 71.236H39.6547L35.3987 64.376V73H29.3787L29.3787 53.4H34.8107L41.1947 63.844L47.4107 53.4H52.8427L52.8987 73H46.8787ZM71.8295 68.016V73H55.5335V53.4H71.4655V58.384H62.0295V60.68H70.3175V65.44H62.0295V68.016H71.8295Z" fill="white"/>
</svg>
