<svg width="50" height="50" viewBox="0 0 50 50" fill="none" xmlns="http://www.w3.org/2000/svg">
<rect width="50" height="50" rx="25" fill="#5B0F80"/>
<path d="M13.5622 17.796H11.1022V15.6H18.8542V17.796H16.3942V24H13.5622V17.796ZM19.3498 15.6H22.1818V24H19.3498V15.6ZM27.3491 15.6C28.1251 15.6 28.8011 15.728 29.3771 15.984C29.9531 16.24 30.3971 16.608 30.7091 17.088C31.0211 17.568 31.1771 18.128 31.1771 18.768C31.1771 19.408 31.0211 19.968 30.7091 20.448C30.3971 20.928 29.9531 21.296 29.3771 21.552C28.8011 21.808 28.1251 21.936 27.3491 21.936H26.1371V24H23.3051V15.6H27.3491ZM27.1691 19.752C27.5531 19.752 27.8411 19.668 28.0331 19.5C28.2251 19.324 28.3211 19.08 28.3211 18.768C28.3211 18.456 28.2251 18.216 28.0331 18.048C27.8411 17.872 27.5531 17.784 27.1691 17.784H26.1371V19.752H27.1691ZM35.1151 24.192C34.4191 24.192 33.7391 24.116 33.0751 23.964C32.4191 23.804 31.8791 23.592 31.4551 23.328L32.3671 21.264C32.7671 21.496 33.2151 21.684 33.7111 21.828C34.2071 21.964 34.6831 22.032 35.1391 22.032C35.5311 22.032 35.8111 21.996 35.9791 21.924C36.1471 21.844 36.2311 21.728 36.2311 21.576C36.2311 21.4 36.1191 21.268 35.8951 21.18C35.6791 21.092 35.3191 20.996 34.8151 20.892C34.1671 20.756 33.6271 20.612 33.1951 20.46C32.7631 20.3 32.3871 20.044 32.0671 19.692C31.7471 19.332 31.5871 18.848 31.5871 18.24C31.5871 17.712 31.7351 17.232 32.0311 16.8C32.3271 16.368 32.7671 16.028 33.3511 15.78C33.9431 15.532 34.6591 15.408 35.4991 15.408C36.0751 15.408 36.6391 15.472 37.1911 15.6C37.7511 15.72 38.2431 15.9 38.6671 16.14L37.8151 18.192C36.9911 17.776 36.2111 17.568 35.4751 17.568C34.7471 17.568 34.3831 17.744 34.3831 18.096C34.3831 18.264 34.4911 18.392 34.7071 18.48C34.9231 18.56 35.2791 18.648 35.7751 18.744C36.4151 18.864 36.9551 19.004 37.3951 19.164C37.8351 19.316 38.2151 19.568 38.5351 19.92C38.8631 20.272 39.0271 20.752 39.0271 21.36C39.0271 21.888 38.8791 22.368 38.5831 22.8C38.2871 23.224 37.8431 23.564 37.2511 23.82C36.6671 24.068 35.9551 24.192 35.1151 24.192ZM19.8228 33.56H18.7068V35H15.9588V33.56H11.6028L11.6028 31.76L15.1668 26.6H18.0708L14.9028 31.364H16.0428V30.08H18.7068V31.364H19.8228V33.56ZM27.8138 35L27.7898 31.172L25.9658 34.244H24.7178L22.8938 31.304V35H20.3138V26.6H22.6418L25.3778 31.076L28.0418 26.6H30.3698L30.3938 35H27.8138ZM38.507 32.864V35H31.523V26.6H38.351V28.736H34.307V29.72H37.859V31.76H34.307V32.864H38.507Z" fill="white"/>
</svg>
